<svg xmlns="http://www.w3.org/2000/svg" width="880" height="415" viewBox="0 0 880 415" role="img" aria-labelledby="title desc">
<title id="title">Clearing output narrows the selection</title><desc id="desc">Schematic terminal buffers compare selecting all while earlier output remains with selecting after Cmd+K clears it. The desired example includes the file contents and exactly two surrounding rows on each side.</desc>
<defs>
  <marker id="arrow" viewBox="0 0 10 10" refX="9" refY="5" markerWidth="7" markerHeight="7" orient="auto"><path d="M0 0L10 5L0 10Z" fill="#52616a"/></marker>
  <marker id="blue-arrow" viewBox="0 0 10 10" refX="9" refY="5" markerWidth="7" markerHeight="7" orient="auto"><path d="M0 0L10 5L0 10Z" fill="#27659a"/></marker>
</defs>
<rect width="100%" height="100%" fill="#f7f4ec"/>
<text x="30" y="34" fill="#263238" font-family="Arial, Helvetica, sans-serif" font-size="23" font-weight="600" text-anchor="start">Cmd+A follows what remains in the buffer</text><text x="30" y="57" fill="#52616a" font-family="Arial, Helvetica, sans-serif" font-size="14" font-weight="400" text-anchor="start">Schematic example · the desired scope is file.txt plus two rows above and two below</text><text x="30" y="91" fill="#263238" font-family="Arial, Helvetica, sans-serif" font-size="18" font-weight="600" text-anchor="start">Earlier output retained</text><rect x="30" y="108" width="397" height="260" rx="3" fill="#fffdf8" stroke="#9da9aa" stroke-width="1"/><circle cx="45" cy="122" r="3.3" fill="#b96c5d"/><circle cx="59" cy="122" r="3.3" fill="#c69a42"/><circle cx="73" cy="122" r="3.3" fill="#6b9a75"/><text x="43" y="147" fill="#52616a" font-family="Arial, Helvetica, sans-serif" font-size="12" font-weight="500" text-anchor="start">Schematic terminal buffer</text><rect x="40" y="154" width="377" height="20" rx="0" fill="#dce9f2" stroke="none" stroke-width="0"/><text x="47" y="169" fill="#27659a" font-family="SFMono-Regular, Menlo, Consolas, monospace" font-size="14" font-weight="400" text-anchor="start">old build log …</text><rect x="40" y="174" width="377" height="20" rx="0" fill="#dce9f2" stroke="none" stroke-width="0"/><text x="47" y="189" fill="#27659a" font-family="SFMono-Regular, Menlo, Consolas, monospace" font-size="14" font-weight="400" text-anchor="start">old error output …</text><rect x="40" y="194" width="377" height="20" rx="0" fill="#dce9f2" stroke="none" stroke-width="0"/><text x="47" y="209" fill="#27659a" font-family="SFMono-Regular, Menlo, Consolas, monospace" font-size="14" font-weight="400" text-anchor="start">~/project $ cat file.txt</text><rect x="40" y="214" width="377" height="20" rx="0" fill="#dce9f2" stroke="none" stroke-width="0"/><rect x="40" y="234" width="377" height="20" rx="0" fill="#dce9f2" stroke="none" stroke-width="0"/><text x="47" y="249" fill="#27659a" font-family="SFMono-Regular, Menlo, Consolas, monospace" font-size="14" font-weight="400" text-anchor="start">alpha</text><rect x="40" y="254" width="377" height="20" rx="0" fill="#dce9f2" stroke="none" stroke-width="0"/><text x="47" y="269" fill="#27659a" font-family="SFMono-Regular, Menlo, Consolas, monospace" font-size="14" font-weight="400" text-anchor="start">beta</text><rect x="40" y="274" width="377" height="20" rx="0" fill="#dce9f2" stroke="none" stroke-width="0"/><text x="47" y="289" fill="#27659a" font-family="SFMono-Regular, Menlo, Consolas, monospace" font-size="14" font-weight="400" text-anchor="start">gamma</text><rect x="40" y="294" width="377" height="20" rx="0" fill="#dce9f2" stroke="none" stroke-width="0"/><text x="47" y="309" fill="#27659a" font-family="SFMono-Regular, Menlo, Consolas, monospace" font-size="14" font-weight="400" text-anchor="start">~/project $</text><rect x="40" y="314" width="377" height="20" rx="0" fill="#dce9f2" stroke="none" stroke-width="0"/><path d="M409 154H417V334H409" fill="none" stroke="#27659a" stroke-width="1.5"/><text x="453" y="91" fill="#263238" font-family="Arial, Helvetica, sans-serif" font-size="18" font-weight="600" text-anchor="start">After Cmd+K clears output</text><rect x="453" y="108" width="397" height="220" rx="3" fill="#fffdf8" stroke="#9da9aa" stroke-width="1"/><circle cx="468" cy="122" r="3.3" fill="#b96c5d"/><circle cx="482" cy="122" r="3.3" fill="#c69a42"/><circle cx="496" cy="122" r="3.3" fill="#6b9a75"/><text x="466" y="147" fill="#52616a" font-family="Arial, Helvetica, sans-serif" font-size="12" font-weight="500" text-anchor="start">Schematic terminal buffer</text><rect x="463" y="154" width="377" height="20" rx="0" fill="#dce9f2" stroke="none" stroke-width="0"/><text x="470" y="169" fill="#27659a" font-family="SFMono-Regular, Menlo, Consolas, monospace" font-size="14" font-weight="400" text-anchor="start">~/project $ cat file.txt</text><rect x="463" y="174" width="377" height="20" rx="0" fill="#dce9f2" stroke="none" stroke-width="0"/><rect x="463" y="194" width="377" height="20" rx="0" fill="#dce9f2" stroke="none" stroke-width="0"/><text x="470" y="209" fill="#27659a" font-family="SFMono-Regular, Menlo, Consolas, monospace" font-size="14" font-weight="400" text-anchor="start">alpha</text><rect x="463" y="214" width="377" height="20" rx="0" fill="#dce9f2" stroke="none" stroke-width="0"/><text x="470" y="229" fill="#27659a" font-family="SFMono-Regular, Menlo, Consolas, monospace" font-size="14" font-weight="400" text-anchor="start">beta</text><rect x="463" y="234" width="377" height="20" rx="0" fill="#dce9f2" stroke="none" stroke-width="0"/><text x="470" y="249" fill="#27659a" font-family="SFMono-Regular, Menlo, Consolas, monospace" font-size="14" font-weight="400" text-anchor="start">gamma</text><rect x="463" y="254" width="377" height="20" rx="0" fill="#dce9f2" stroke="none" stroke-width="0"/><text x="470" y="269" fill="#27659a" font-family="SFMono-Regular, Menlo, Consolas, monospace" font-size="14" font-weight="400" text-anchor="start">~/project $</text><rect x="463" y="274" width="377" height="20" rx="0" fill="#dce9f2" stroke="none" stroke-width="0"/><path d="M832 154H840V294H832" fill="none" stroke="#27659a" stroke-width="1.5"/><text x="30" y="393" fill="#52616a" font-family="Arial, Helvetica, sans-serif" font-size="14" font-weight="400" text-anchor="start">Blue fill marks selected rows · the clear panel shows two rows around the file.</text>
</svg>